<svg id="圖層_1" data-name="圖層 1" xmlns="http://www.w3.org/2000/svg" viewBox="0 0 140 40"><defs><style>.cls-1{fill:#fd5f00;}</style></defs><title>zazaar_logo</title><path class="cls-1" d="M144.3,23.55a2.57,2.57,0,0,0-1.79-.63q-4.39,0-10.64,7L133,28.26q2.3-3.39,2.3-4.61c0-.53-.21-.79-.64-.79-1.88,0-3.23.5-4,1.49a21.25,21.25,0,0,0-1.64,2.5c-.32.55-1.29,2.17-2.91,4.84s-2.82,4.67-3.59,6l-.6,1-.07.07a14.73,14.73,0,0,1-1.93,1.59,3.56,3.56,0,0,1-1.88.74c-.53,0-.8-.48-.8-1.43a2.73,2.73,0,0,1,.08-.73,23.1,23.1,0,0,1,1.76-5.09q1.36-3,2.49-4.9A15.53,15.53,0,0,1,123,26.72a1.45,1.45,0,0,0,.34-1.07q0-1.35-2-1.35a2.8,2.8,0,0,0-1.31.24A3.93,3.93,0,0,0,119,25.73a2.15,2.15,0,0,0-1.14-1.17,4.93,4.93,0,0,0-2.33-.47q-3.7,0-8.09,3.38a27.74,27.74,0,0,0-3.84,3.58,17.08,17.08,0,0,0-2.82,4.35,12,12,0,0,0-1,3.37l0,0a14.73,14.73,0,0,1-1.93,1.59,3.56,3.56,0,0,1-1.88.74c-.53,0-.8-.48-.8-1.43a2.73,2.73,0,0,1,.08-.73A23.1,23.1,0,0,1,97,33.87q1.36-3,2.49-4.9a15.53,15.53,0,0,1,1.47-2.25,1.45,1.45,0,0,0,.34-1.07q0-1.35-2-1.35a2.8,2.8,0,0,0-1.31.24,3.93,3.93,0,0,0-1.07,1.19,2.15,2.15,0,0,0-1.14-1.17,4.93,4.93,0,0,0-2.33-.47q-3.7,0-8.09,3.38a27.74,27.74,0,0,0-3.84,3.58,17.08,17.08,0,0,0-2.82,4.35,12.81,12.81,0,0,0-.79,2.33c-1.69.5-4.42,1.09-8.22,1.78-2.38.43-3.86.73-4.44.91Q68,35.65,79.61,26.74a3.93,3.93,0,0,0,1.72-.8,1.83,1.83,0,0,0,.48-1.36,2.26,2.26,0,0,0-.46-1.46,1.3,1.3,0,0,0-1-.57,3.72,3.72,0,0,0-1.24.26,5.27,5.27,0,0,1-.75.26,80.73,80.73,0,0,1-10.27.73,10.28,10.28,0,0,0-2.7.39,3.8,3.8,0,0,0-2,1.54,3.63,3.63,0,0,0-.82,1.85c0,.45.17.68.52.68h.08c1-.2,4.3-.46,10-.81-.53.45-1.57,1.28-3.12,2.5s-2.85,2.26-3.89,3.15a35,35,0,0,0-3.56,3.61c-.13.14-.24.29-.36.44,0-.16,0-.33,0-.48-.07-.51-.27-.76-.6-.76a.71.71,0,0,0-.48.13c-.11.09-.43.43-1,1s-1.09,1.16-1.65,1.73a14.73,14.73,0,0,1-1.93,1.59,3.56,3.56,0,0,1-1.88.74c-.53,0-.8-.48-.8-1.43A2.73,2.73,0,0,1,54,39a23.1,23.1,0,0,1,1.76-5.09q1.36-3,2.49-4.9a15.53,15.53,0,0,1,1.47-2.25A1.45,1.45,0,0,0,60,25.65q0-1.35-2-1.35a2.8,2.8,0,0,0-1.31.24,3.93,3.93,0,0,0-1.07,1.19,2.15,2.15,0,0,0-1.14-1.17,4.93,4.93,0,0,0-2.33-.47c-2.47,0-5.16,1.13-8.09,3.38a27.74,27.74,0,0,0-3.84,3.58,17.36,17.36,0,0,0-2.82,4.35,11.88,11.88,0,0,0-1,3.81,4.61,4.61,0,0,0-1-.53,18.4,18.4,0,0,0-6.4-.87,69.12,69.12,0,0,0-9,.65c-3.25.44-5.84.87-7.78,1.31q2.38-2.35,13.14-12.4T41.1,13.2l1.32-1.12c.11-.08.5-.33,1.18-.73s1.3-.79,1.86-1.18a8.06,8.06,0,0,0,1.62-1.5,2.8,2.8,0,0,0,.76-1.78q0-.87-1.11-1.38A5.84,5.84,0,0,0,44.26,5a2.8,2.8,0,0,0-2.21,1,6.11,6.11,0,0,1-1,.88,6.38,6.38,0,0,1-1.65.84,30.88,30.88,0,0,1-5.61.64c-3.1.2-5.7.3-7.82.3q-6.62,0-6.62-1.12c0-.12.15-.29.44-.49s.44-.37.44-.47S20,6.2,19.44,6.2a6.31,6.31,0,0,0-2.53,1,4.4,4.4,0,0,0-1.5,1.36,3.39,3.39,0,0,0-.62,2q0,3.31,7.73,3.31a45.78,45.78,0,0,0,6.59-.51,45.36,45.36,0,0,0,5.79-1.15Q31.57,14.7,24.57,21T11.39,33.52C7.27,37.66,5.21,40.16,5.21,41L5,41.82a3.16,3.16,0,0,0,1.06,2A3.53,3.53,0,0,0,8.78,45c.39,0,1.21-.07,2.45-.2s4.4-.42,9.48-.82,8.68-.62,10.82-.62a8.76,8.76,0,0,1,4.46.81.88.88,0,0,1,.21.4q.11.33.21.33.31,0,.78-1.08c.07-.17.11-.33.16-.49a5.82,5.82,0,0,0,.46.53,4.14,4.14,0,0,0,2.94,1.07c1.2,0,2.75-.66,4.65-2a22.92,22.92,0,0,0,5-4.76,6.44,6.44,0,0,0-.53,2.72,4.44,4.44,0,0,0,1,2.82A3.76,3.76,0,0,0,54.05,45a7.91,7.91,0,0,0,4.74-2.08l.45-.39v.15c0,.73.09,1.19.29,1.37l.33.3.14.1a.8.8,0,0,0,.19.11l.23.08a1.32,1.32,0,0,0,.3.07l.37.06c.14,0,.47,0,1,0s3.87-.53,10-1.59c2.6-.44,4.52-.78,5.81-1a4.23,4.23,0,0,0,1.11,1.67A4.14,4.14,0,0,0,82,44.9c1.2,0,2.75-.66,4.65-2a22.92,22.92,0,0,0,5-4.76,6.44,6.44,0,0,0-.53,2.72,4.44,4.44,0,0,0,1,2.82A3.76,3.76,0,0,0,95.29,45,7.91,7.91,0,0,0,100,42.92l.25-.22a4.21,4.21,0,0,0,.84,1.13,4.14,4.14,0,0,0,2.94,1.07c1.2,0,2.75-.66,4.65-2a22.92,22.92,0,0,0,5-4.76,6.44,6.44,0,0,0-.53,2.72,4.44,4.44,0,0,0,1,2.82A3.76,3.76,0,0,0,117.36,45a6.75,6.75,0,0,0,3.6-1.27l.16.06a4.66,4.66,0,0,0,1.51.35c.37,0,.84-.37,1.38-1.12q2.83-3.75,5.26-6.37c1.61-1.74,3.57-3.72,5.87-5.92s3.75-3.33,4.33-3.39l.05.06a6.61,6.61,0,0,0-2,4.06,2.19,2.19,0,0,0,.47,1.4,1.54,1.54,0,0,0,1.29.6,1.88,1.88,0,0,0,1.5-.83q1.25-1.64,2.71-4a8.09,8.09,0,0,0,1.47-3.4A2.14,2.14,0,0,0,144.3,23.55Zm-94.6,10a40.69,40.69,0,0,1-4.5,4.23q-3.39,2.88-4.13,2.88c-.35,0-.53-.31-.53-.91A8.89,8.89,0,0,1,42,36.38a22,22,0,0,1,3.16-4.24q4.84-5,9.37-4.95Q50.91,32.05,49.7,33.57Zm41.24,0a42.68,42.68,0,0,1-4.5,4.23q-3.39,2.88-4.13,2.88c-.35,0-.53-.31-.53-.91a8.89,8.89,0,0,1,1.44-3.39,22,22,0,0,1,3.16-4.24q4.84-5,9.37-4.95Q92.15,32.05,90.94,33.57Zm22.07,0a41.66,41.66,0,0,1-4.5,4.23q-3.39,2.88-4.13,2.88c-.35,0-.53-.31-.53-.91a8.89,8.89,0,0,1,1.44-3.39,22,22,0,0,1,3.16-4.24q4.85-5,9.37-4.95Q114.22,32.05,113,33.57Z" transform="translate(-5 -5)"/></svg>