<svg enable-background="new 0 0 380 115" viewBox="0 0 380 115" xmlns="http://www.w3.org/2000/svg">
	<style>
		.logo-color{fill:#fff;}
	</style>
	<path class="logo-color" d="m368.4 54c-.9-1-2.5-1.6-4.1-1.6-7 0-15.2 5.4-25 16.4l3.1-3.9c3.5-5.3 5.4-9.1 5.4-11 0-1.3-.7-1.9-1.6-1.9-4.4 0-7.6 1.3-9.5 3.5-1 1.3-2.2 3.2-3.8 6-.6 1.2-2.8 5-6.6 11.3s-6.3 11.4-8.2 14.2c-.1.1-.2.3-.3.4-.6.7-1.3 1.4-1.9 2.1-1.2 1.3-2.8 2.5-4.4 3.8s-3.1 1.9-4.4 1.9-1.9-1.3-1.9-3.5c0-.7.3-1.3.3-1.6.6-3.2 1.9-7.3 4.1-12 1.9-4.7 3.8-8.5 5.7-11.6s2.9-4.7 3.5-5.3.9-1.2.9-2.5c0-2.2-1.5-3.1-4.7-3.1-1.6 0-2.6.3-3.3.6-.6.3-1.6 1.2-2.5 2.8-.3-1.2-1.2-2.2-2.5-2.8-1.3-1-3.2-1.3-5.4-1.3-5.7 0-12 2.6-19 7.9-3.2 2.5-6.1 5.4-8.9 8.5-2.8 3.2-5 6.6-6.6 10.4-1.1 2.5-1.8 5-2.2 7.5-.1.1-.2.2-.3.3-1.2 1.3-2.8 2.5-4.4 3.8s-3.1 1.9-4.4 1.9-1.9-1.3-1.9-3.5c0-.7.3-1.3.3-1.6.6-3.2 1.9-7.3 4.1-12 1.9-4.7 3.8-8.5 5.7-11.6s2.9-4.7 3.5-5.3.9-1.2.9-2.5c0-2.2-1.5-3.1-4.7-3.1-1.6 0-2.7.3-3.3.6s-1.6 1.2-2.5 2.8c-.3-1.2-1.2-2.2-2.5-2.8-1.3-1-3.2-1.3-5.4-1.3-5.7 0-12 2.6-19 7.9-3.2 2.5-6.1 5.4-8.9 8.5-2.8 3.2-5 6.6-6.6 10.4-1.2 2.9-2.1 5.8-2.4 8.8-.7-.6-1.6-1.1-2.6-1.5-3.5-1.6-8.3-2.2-14.9-2.2s-13.6.7-21.2 1.6-13.6 2.2-18 3.1c3.8-3.8 13.9-13.6 30.7-29.3s28.8-26.7 36.7-33.3c1.9-1.6 2.9-2.5 3.2-2.5s1.2-.7 2.8-1.6 3.1-1.9 4.4-2.8c1.3-1 2.5-1.9 3.8-3.5 1.3-1.3 1.3-2.9 1.3-4.1s-.9-2.1-2.5-3.1-3.5-1.3-5.7-1.3c-1.9 0-3.8.6-5.1 2.2-.3.6-1.3 1.3-2.2 2.2-1 .6-2.2 1.3-3.8 1.9-1.3.7-5.7 1.3-13 1.6-7.2.3-13.2.6-18.3.6-10.4 0-15.5-.6-15.5-2.5 0-.3.7.1 1.3-.6s.9-1 .9-1.3c0-.6-.6-.9-1.9-.9s-3.2.6-6 2.2c-1.3.6-2.6 1.8-3.5 3.1-1 1.6-1.6 3.1-1.6 4.7 0 5.4 6 7.9 18 7.9 5.1 0 10.1-.4 15.5-1.3s10.1-1.9 13.6-2.8c-5 4.1-13.2 11.3-24 21.1-10.8 10.1-21.2 19.8-30.7 29.6-4.8 4.7-8.3 8.4-10.7 11.4 0-.2 0-.5 0-.8 0-1.3 0-2.5-.3-3.8 0-1.3-.6-1.9-1.3-1.9s-1 0-1.3.3-.9 1.2-2.2 2.5-2.5 2.8-3.8 4.1c-1.2 1.3-2.8 2.5-4.4 3.8s-3.1 1.9-4.4 1.9-1.9-1.3-1.9-3.5c0-.7.3-1.3.3-1.6.6-3.2 1.9-7.3 4.1-12 1.9-4.7 3.8-8.5 5.7-11.6s2.9-4.7 3.5-5.3.9-1.2.9-2.5c0-2.2-1.5-3.1-4.7-3.1-1.3 0-2.7.3-3.3.6s-1.6 1.2-2.5 2.8c-.3-1.2-1.2-2.2-2.5-2.8-1.3-1-3.2-1.3-5.4-1.3-5.7 0-12 2.6-19 7.9-3.2 2.5-6.1 5.4-8.9 8.5-2.8 3.2-5 6.6-6.6 10.4-1.3 3-2.1 6-2.4 9-.6-.4-1.4-.8-2.2-1.1-3.5-1.6-8.3-2.2-14.9-2.2s-13.6.7-21.2 1.6-13.6 2.2-18 3.1c3.5-3.8 13.5-14.2 30.3-29.9s28.8-26.7 36.7-33.3c1.9-1.6 2.9-2.5 3.2-2.5s1.2-.7 2.8-1.6 3.1-1.5 4.4-2.8c1.3-1 2.5-1.9 3.8-3.5 1.3-1.3 1.3-2.9 1.3-4.1s-.9-2.2-2.5-3.1c-1.6-1-3.5-1.3-5.7-1.3-1.9 0-3.8.6-5.1 2.2-.3.6-1.3 1.3-2.2 2.2-1 .6-2.2 1.3-3.8 1.9-1.3.7-5.7 1.3-13 1.6-7.2.3-13.2.6-18.3.6-10.4 0-15.5-.6-15.5-2.5 0-.3 1.4-.3 2-1s.9-1 .9-1.3c0-.6-.6-.9-1.9-.9s-3.2.6-6 2.2c-1.3.6-2.6 1.8-3.5 3.1-1 1.6-1.6 3.1-1.6 4.7 0 5.4 6 7.9 18 7.9 4.8 0 9.8.6 15.2-.3s10.1-1.9 13.6-2.8c-5 4.1-13.2 11.3-24 21.1-10.8 10.1-21.2 19.8-30.7 29.6-9.9 9.7-14.6 15.7-14.6 17.6l-.6 1.9c0 1.2.9 2.8 2.5 4.7 1.6 1.6 3.8 2.5 6.3 2.5 1 0 2.9-.3 5.7-.6s10.4-1 22.1-1.9c12-1 20.2-1.6 25.3-1.6 5 0 8.5.6 10.4 1.9.3 0 .3.3.6.9.3.3.3.6.6.6.6 0 1.3-.9 1.9-2.5.1-.3.2-.6.3-.9.3.3.5.6.8.9 1.9 1.6 4.1 2.5 7 2.5s6.4-1.6 10.8-4.7 8.2-6.9 11.7-11.3c-1 1.6-1.3 3.8-1.3 6.3s.6 4.7 2.2 6.6c1.6 2.2 4.1 3.1 7.3 3.1 3.5 0 7-1.9 11.1-5 1.7-1.5 3.1-2.8 4.3-4l-.6 1.9c0 1.2.9 2.8 2.5 4.7 1.6 1.6 3.8 2.5 6.3 2.5 1 0 2.9-.3 5.7-.6s10.4-1 22.1-1.9c12-1 20.3-1.6 25.3-1.6s8.5.6 10.4 1.9c.3 0 .3.3.6.9.3.3.3.6.6.6.6 0 1.3-.9 1.9-2.5.1-.3.2-.6.3-.9.4.5.8 1 1.2 1.5 1.9 1.6 4.1 2.5 7 2.5s6.4-1.6 10.8-4.7 8.2-6.9 11.7-11.3c-1 1.6-1.3 3.8-1.3 6.3s.6 4.7 2.2 6.6c1.6 2.2 4.1 3.1 7.3 3.1 3.5 0 7-1.9 11.1-5 .2-.2.4-.3.6-.5.6 1.1 1.3 2.1 2.2 3 1.9 1.6 4.1 2.5 7 2.5s6.4-1.6 10.8-4.7 8.2-6.9 11.7-11.3c-1 1.6-1.3 3.8-1.3 6.3s.6 4.7 2.2 6.6c1.6 2.2 4.1 3.1 7.3 3.1 2.8 0 5.5-1.2 8.6-3.2.1 0 .2.1.2.1 1.3.6 2.5.9 3.5.9s1.9-.6 3.2-2.5c4.4-6 8.5-11.1 12.3-15.1s8.2-8.8 13.6-13.8c5.4-5.1 8.8-7.9 10.1-7.9-2.8 3.4-4.4 6.6-4.4 9.4 0 1.3.3 2.6.9 3.5 1 1 1.9 1.3 3.2 1.3s2.6-.6 3.5-1.9c1.9-2.5 4.1-5.9 6.3-9.4s3.5-6.3 3.5-7.9-.7-2.9-1.6-3.8zm-254 23c-1.5 2.2-5 5.7-10.4 10.1-5.1 4.7-8.2 6.9-9.5 6.9-1 0-1.3-.9-1.3-2.2s1.3-4.1 3.5-7.9c2.2-4.1 4.8-7.3 7.3-10.1 7.6-7.8 14.8-11.6 21.8-11.6-5.7 7.9-9.5 12.9-11.4 14.8zm129.4 0c-1.5 2.2-5 5.7-10.4 10.1-5.1 4.7-8.2 6.9-9.5 6.9-1 0-1.3-.9-1.3-2.2s1.3-4.1 3.5-7.9c2.2-4.1 4.8-7.3 7.3-10.1 7.6-7.8 14.8-11.6 21.8-11.6-5.7 7.9-9.5 12.9-11.4 14.8zm51.5 0c-1.5 2.2-5 5.7-10.4 10.1-5.1 4.7-8.2 6.9-9.5 6.9-1 0-1.3-.9-1.3-2.2s1.3-4.1 3.5-7.9c2.2-4.1 4.8-7.3 7.3-10.1 7.6-7.8 14.8-11.6 21.8-11.6-5.7 7.9-9.5 12.9-11.4 14.8z"/>
</svg>