<?xml version="1.0" encoding="utf-8"?>
<!-- Generator: Adobe Illustrator 22.1.0, SVG Export Plug-In . SVG Version: 6.00 Build 0)  -->
<svg version="1.1" id="圖層_1" xmlns="http://www.w3.org/2000/svg" xmlns:xlink="http://www.w3.org/1999/xlink" x="0px" y="0px"
	 viewBox="0 0 380 115" style="enable-background:new 0 0 380 115;" xml:space="preserve">
<style type="text/css">
	.st0{enable-background:new    ;}
	.st1{fill:#FFFFFF;}
</style>
<title>ZaZaar</title>
<desc>Created with Sketch.</desc>
<g class="st0">
	<path class="st1" d="M43.5,16c0,1.9,5.1,2.5,15.5,2.5c5.1,0,11.1-0.3,18.3-0.6c7.3-0.3,11.7-0.9,13-1.6c1.6-0.6,2.8-1.3,3.8-1.9
		c0.9-0.9,1.9-1.6,2.2-2.2c1.3-1.6,3.2-2.2,5.1-2.2c2.2,0,4.1,0.3,5.7,1.3c1.6,0.9,2.5,1.9,2.5,3.1s0,2.8-1.3,4.1
		c-1.3,1.6-2.5,2.5-3.8,3.5c-1.3,1.3-2.8,1.9-4.4,2.8s-2.5,1.6-2.8,1.6s-1.3,0.9-3.2,2.5c-7.9,6.6-19.9,17.6-36.7,33.3
		S30.6,88.3,27.1,92.1c4.4-0.9,10.4-2.2,18-3.1s14.6-1.6,21.2-1.6s11.4,0.6,14.9,2.2c3.5,1.3,5.4,3.8,5.4,7.2c0,1.6-0.3,3.1-0.9,5
		c-0.6,1.6-1.3,2.5-1.9,2.5c-0.3,0-0.3-0.3-0.6-0.6c-0.3-0.6-0.3-0.9-0.6-0.9c-1.9-1.3-5.4-1.9-10.4-1.9c-5.1,0-13.3,0.6-25.3,1.6
		c-11.7,0.9-19.3,1.6-22.1,1.9s-4.7,0.6-5.7,0.6c-2.5,0-4.7-0.9-6.3-2.5c-1.6-1.9-2.5-3.5-2.5-4.7l0.6-1.9c0-1.9,4.7-7.9,14.6-17.6
		c9.5-9.8,19.9-19.5,30.7-29.6c10.8-9.8,19-17,24-21.1c-3.5,0.9-8.2,1.9-13.6,2.8s-10.4,0.3-15.2,0.3c-12,0-18-2.5-18-7.9
		c0-1.6,0.6-3.1,1.6-4.7c0.9-1.3,2.2-2.5,3.5-3.1c2.8-1.6,4.7-2.2,6-2.2s1.9,0.3,1.9,0.9c0,0.3-0.3,0.6-0.9,1.3S43.5,15.7,43.5,16z"
		/>
	<path class="st1" d="M134,55.6c3.2,0,4.7,0.9,4.7,3.1c0,1.3-0.3,1.9-0.9,2.5c-0.6,0.6-1.6,2.2-3.5,5.3c-1.9,3.1-3.8,6.9-5.7,11.6
		c-2.2,4.7-3.5,8.8-4.1,12c0,0.3-0.3,0.9-0.3,1.6c0,2.2,0.6,3.5,1.9,3.5s2.8-0.6,4.4-1.9c1.6-1.3,3.2-2.5,4.4-3.8
		c1.3-1.3,2.5-2.8,3.8-4.1c1.3-1.3,1.9-2.2,2.2-2.5s0.6-0.3,1.3-0.3s1.3,0.6,1.3,1.9c0.3,1.3,0.3,2.5,0.3,3.8s0,2.2-0.3,2.5
		c-1.3,2.2-3.8,5-7.9,8.5c-4.1,3.1-7.6,5-11.1,5c-3.2,0-5.7-0.9-7.3-3.1c-1.6-1.9-2.2-4.1-2.2-6.6s0.3-4.7,1.3-6.3
		c-3.5,4.4-7.3,8.2-11.7,11.3c-4.4,3.1-7.9,4.7-10.8,4.7s-5.1-0.9-7-2.5c-2.2-2.2-3.5-5-3.5-8.8s0.9-7.5,2.5-11.3s3.8-7.2,6.6-10.4
		c2.8-3.1,5.7-6,8.9-8.5c7-5.3,13.3-7.9,19-7.9c2.2,0,4.1,0.3,5.4,1.3c1.3,0.6,2.2,1.6,2.5,2.8c0.9-1.6,1.9-2.5,2.5-2.8
		S132.7,55.6,134,55.6z M125.8,62.2c-7,0-14.2,3.8-21.8,11.6c-2.5,2.8-5.1,6-7.3,10.1c-2.2,3.8-3.5,6.6-3.5,7.9s0.3,2.2,1.3,2.2
		c1.3,0,4.4-2.2,9.5-6.9c5.4-4.4,8.9-7.9,10.4-10.1C116.3,75.1,120.1,70.1,125.8,62.2z"/>
	<path class="st1" d="M172.9,16c0,1.9,5.1,2.5,15.5,2.5c5.1,0,11.1-0.3,18.3-0.6c7.3-0.3,11.7-0.9,13-1.6c1.6-0.6,2.8-1.3,3.8-1.9
		c0.9-0.9,1.9-1.6,2.2-2.2c1.3-1.6,3.2-2.2,5.1-2.2c2.2,0,4.1,0.3,5.7,1.3s2.5,1.9,2.5,3.1s0,2.8-1.3,4.1c-1.3,1.6-2.5,2.5-3.8,3.5
		c-1.3,0.9-2.8,1.9-4.4,2.8s-2.5,1.6-2.8,1.6s-1.3,0.9-3.2,2.5c-7.9,6.6-19.9,17.6-36.7,33.3s-26.9,25.5-30.7,29.3
		c4.4-0.9,10.4-2.2,18-3.1s14.6-1.6,21.2-1.6c6.6,0,11.4,0.6,14.9,2.2c3.5,1.3,5.4,3.8,5.4,7.2c0,1.6-0.3,3.1-0.9,5
		c-0.6,1.6-1.3,2.5-1.9,2.5c-0.3,0-0.3-0.3-0.6-0.6c-0.3-0.6-0.3-0.9-0.6-0.9c-1.9-1.3-5.4-1.9-10.4-1.9s-13.3,0.6-25.3,1.6
		c-11.7,0.9-19.3,1.6-22.1,1.9s-4.7,0.6-5.7,0.6c-2.5,0-4.7-0.9-6.3-2.5c-1.6-1.9-2.5-3.5-2.5-4.7l0.6-1.9c0-1.9,4.7-7.9,14.6-17.6
		c9.5-9.8,19.9-19.5,30.7-29.6c10.8-9.8,19-17,24-21.1c-3.5,0.9-8.2,1.9-13.6,2.8c-5.4,0.9-10.4,1.3-15.5,1.3c-12,0-18-2.5-18-7.9
		c0-1.6,0.6-3.1,1.6-4.7c0.9-1.3,2.2-2.5,3.5-3.1c2.8-1.6,4.7-2.2,6-2.2s1.9,0.3,1.9,0.9c0,0.3-0.3,0.6-0.9,1.3
		C173.6,16.1,172.9,15.7,172.9,16z"/>
	<path class="st1" d="M263.4,55.6c3.2,0,4.7,0.9,4.7,3.1c0,1.3-0.3,1.9-0.9,2.5s-1.6,2.2-3.5,5.3c-1.9,3.1-3.8,6.9-5.7,11.6
		c-2.2,4.7-3.5,8.8-4.1,12c0,0.3-0.3,0.9-0.3,1.6c0,2.2,0.6,3.5,1.9,3.5c1.3,0,2.8-0.6,4.4-1.9s3.2-2.5,4.4-3.8
		c1.3-1.3,2.5-2.8,3.8-4.1c1.3-1.3,1.9-2.2,2.2-2.5c0.3-0.3,0.6-0.3,1.3-0.3s1.3,0.6,1.3,1.9c0.3,1.3,0.3,2.5,0.3,3.8s0,2.2-0.3,2.5
		c-1.3,2.2-3.8,5-7.9,8.5c-4.1,3.1-7.6,5-11.1,5c-3.2,0-5.7-0.9-7.3-3.1c-1.6-1.9-2.2-4.1-2.2-6.6s0.3-4.7,1.3-6.3
		c-3.5,4.4-7.3,8.2-11.7,11.3c-4.4,3.1-7.9,4.7-10.8,4.7s-5.1-0.9-7-2.5c-2.2-2.2-3.5-5-3.5-8.8s0.9-7.5,2.5-11.3s3.8-7.2,6.6-10.4
		c2.8-3.1,5.7-6,8.9-8.5c7-5.3,13.3-7.9,19-7.9c2.2,0,4.1,0.3,5.4,1.3c1.3,0.6,2.2,1.6,2.5,2.8c0.9-1.6,1.9-2.5,2.5-2.8
		S261.8,55.6,263.4,55.6z M255.2,62.2c-7,0-14.2,3.8-21.8,11.6c-2.5,2.8-5.1,6-7.3,10.1c-2.2,3.8-3.5,6.6-3.5,7.9s0.3,2.2,1.3,2.2
		c1.3,0,4.4-2.2,9.5-6.9c5.4-4.4,8.9-7.9,10.4-10.1C245.7,75.1,249.5,70.1,255.2,62.2z"/>
	<path class="st1" d="M315,55.6c3.2,0,4.7,0.9,4.7,3.1c0,1.3-0.3,1.9-0.9,2.5s-1.6,2.2-3.5,5.3c-1.9,3.1-3.8,6.9-5.7,11.6
		c-2.2,4.7-3.5,8.8-4.1,12c0,0.3-0.3,0.9-0.3,1.6c0,2.2,0.6,3.5,1.9,3.5s2.8-0.6,4.4-1.9s3.2-2.5,4.4-3.8c1.3-1.3,2.5-2.8,3.8-4.1
		c1.3-1.3,1.9-2.2,2.2-2.5c0.3-0.3,0.6-0.3,1.3-0.3c0.6,0,1.3,0.6,1.3,1.9c0.3,1.3,0.3,2.5,0.3,3.8s0,2.2-0.3,2.5
		c-1.3,2.2-3.8,5-7.9,8.5c-4.1,3.1-7.6,5-11.1,5c-3.2,0-5.7-0.9-7.3-3.1c-1.6-1.9-2.2-4.1-2.2-6.6s0.3-4.7,1.3-6.3
		c-3.5,4.4-7.3,8.2-11.7,11.3c-4.4,3.1-7.9,4.7-10.8,4.7s-5.1-0.9-7-2.5c-2.2-2.2-3.5-5-3.5-8.8s0.9-7.5,2.5-11.3s3.8-7.2,6.6-10.4
		c2.8-3.1,5.7-6,8.9-8.5c7-5.3,13.3-7.9,19-7.9c2.2,0,4.1,0.3,5.4,1.3c1.3,0.6,2.2,1.6,2.5,2.8c0.9-1.6,1.9-2.5,2.5-2.8
		C312.4,55.9,313.4,55.6,315,55.6z M306.7,62.2c-7,0-14.2,3.8-21.8,11.6c-2.5,2.8-5.1,6-7.3,10.1c-2.2,3.8-3.5,6.6-3.5,7.9
		s0.3,2.2,1.3,2.2c1.3,0,4.4-2.2,9.5-6.9c5.4-4.4,8.9-7.9,10.4-10.1C297.2,75.1,301,70.1,306.7,62.2z"/>
	<path class="st1" d="M339.3,68.8c9.8-11,18-16.4,25-16.4c1.6,0,3.2,0.6,4.1,1.6c0.9,0.9,1.6,2.2,1.6,3.8s-1.3,4.4-3.5,7.9
		c-2.2,3.5-4.4,6.9-6.3,9.4c-0.9,1.3-2.2,1.9-3.5,1.9s-2.2-0.3-3.2-1.3c-0.6-0.9-0.9-2.2-0.9-3.5c0-2.8,1.6-6,4.4-9.4l0,0
		c-1.3,0-4.7,2.8-10.1,7.9c-5.4,5-9.8,9.8-13.6,13.8s-7.9,9.1-12.3,15.1c-1.3,1.9-2.2,2.5-3.2,2.5s-2.2-0.3-3.5-0.9
		s-2.2-0.9-2.5-1.3c-0.3-0.3-0.3-0.6-0.3-1.3s0.3-1.3,0.6-1.9s0.9-1.9,1.9-3.1s2.2-3.8,4.1-6.6c1.9-2.8,4.4-7.9,8.2-14.2
		s6-10.1,6.6-11.3c1.6-2.8,2.8-4.7,3.8-6c1.9-2.2,5.1-3.5,9.5-3.5c0.9,0,1.6,0.6,1.6,1.9c0,1.9-1.9,5.7-5.4,11L339.3,68.8z"/>
</g>
</svg>
